# xmcd CD database file
#
# Track frame offsets:
#	150
#	18077
#	34729
#	53406
#	65933
#	82885
#	96237
#	113264
#	133516
#	150318
#	167870
#	181672
#	195699
#	206201
#
# Disc length: 3022 seconds
#
# Revision: 0
# Processed by: cddbd v1.4PL0 Copyright (c) Steve Scherf et al.
# Submitted via: CDex 1.40Release
#
DISCID=aa0bcc0e
DTITLE=Marimba Usula - Exitos y Ritmos
DYEAR=2003
DGENRE=Native American
TTITLE0=Hasta Que Te Conocí
TTITLE1=Caballo Viejo
TTITLE2=Calle Doce
TTITLE3=Si Nos Dejan
TTITLE4=Juanita Morell
TTITLE5=Mujeres Divinas
TTITLE6=Palillos Chinos
TTITLE7=A Mi Manera
TTITLE8=El Mar
TTITLE9=Alejandra
TTITLE10=La Pollera Colora
TTITLE11=Nuestro Juramento
TTITLE12=Tico Tico
TTITLE13=La Vida Es Un Carnaval
EXTD=YEAR: 2003 ID3G: 64
EXTT0=
EXTT1=
EXTT2=
EXTT3=
EXTT4=
EXTT5=
EXTT6=
EXTT7=
EXTT8=
EXTT9=
EXTT10=
EXTT11=
EXTT12=
EXTT13=
PLAYORDER=
